<svg id="visual" viewBox="0 0 900 600" width="900" height="600" xmlns="http://www.w3.org/2000/svg" xmlns:xlink="http://www.w3.org/1999/xlink" version="1.1"><rect width="900" height="600" fill="#931F1F"></rect><g><g transform="translate(875 396)"><path d="M97.3 -29.9C109.7 6.5 92.1 54.5 57.6 79.5C23.2 104.5 -27.9 106.7 -58.5 83.7C-89.1 60.8 -99.1 12.7 -85.9 -24.9C-72.7 -62.4 -36.3 -89.4 3.1 -90.4C42.5 -91.4 84.9 -66.4 97.3 -29.9Z" fill="#F7760E"></path></g><g transform="translate(608 30)"><path d="M81.1 -26.2C90.2 1.6 72.4 38.4 43.7 58.9C15.1 79.4 -24.4 83.7 -51.3 65.4C-78.2 47.1 -92.6 6.2 -81.9 -23.8C-71.3 -53.8 -35.6 -72.9 0.2 -73C36 -73.1 72 -54.1 81.1 -26.2Z" fill="#F7760E"></path></g><g transform="translate(458 524)"><path d="M85.9 -28.5C96.5 4.8 80.1 46.2 50 67.9C19.9 89.5 -23.9 91.3 -51.4 71.2C-78.9 51.1 -90.1 9.1 -78.8 -25C-67.5 -59.2 -33.8 -85.4 1.9 -86.1C37.6 -86.7 75.3 -61.7 85.9 -28.5Z" fill="#F7760E"></path></g><g transform="translate(150 201)"><path d="M84.1 -29.8C95.6 8.3 82.5 51.8 53.3 73C24.1 94.1 -21.1 92.7 -51.2 70.8C-81.3 48.8 -96.3 6.3 -85.3 -31.1C-74.2 -68.5 -37.1 -100.8 -0.4 -100.6C36.2 -100.5 72.5 -67.9 84.1 -29.8Z" fill="#F7760E"></path></g></g></svg>